<?xml version="1.0" encoding="utf-8" standalone="yes"?>
<!DOCTYPE svg PUBLIC "-//W3C//DTD SVG 1.1//EN" "http://www.w3.org/Graphics/SVG/1.1/DTD/svg11.dtd">
<svg style="fill:none;stroke:none;fill-rule:evenodd;clip-rule:evenodd;stroke-linecap:round;stroke-linejoin:round;stroke-miterlimit:1.5;" version="1.1" xmlns="http://www.w3.org/2000/svg" xmlns:xlink="http://www.w3.org/1999/xlink" width="744" height="474" viewBox="0 0 744 474"><style class="text-font-style fontImports" data-font-family="Roboto">@import url(https://fonts.googleapis.com/css2?family=Roboto:wght@400;700&amp;amp;display=block);</style><rect id="" x="0" y="0" width="744" height="474" style="fill: #ffffff;"></rect><g id="items" style="isolation: isolate"><g id="blend" style="mix-blend-mode: normal"><g id="g-root-tf_qvx1gq1cn2kg9-fill" data-item-order="-528984"><g id="tf_qvx1gq1cn2kg9-fill-merged" stroke="none" fill="#ffffff" fill-opacity="1"><g><path d="M0 0 H744 V474 H0 V0"></path></g></g></g><g id="g-root-tf_qvx1gq1cn2kg9-stroke" data-item-order="-528984"></g><g id="g-root-cp_1_container_8yed9m1cmiwhs-fill" data-item-order="-263076" transform="translate(52, 123)"><g id="cp_1_container_8yed9m1cmiwhs-fill-merged" stroke="none" fill="#e0cb15" fill-opacity="1"><g><path d="M125.5 95.5L76 141L49.5 140L10 100.5L13.5 73.5L42 82.5L35.5 57L64 10L95 52L88 80.5L122 66L125.5 95.5"></path></g></g></g><g id="g-root-cp_1_container_8yed9m1cmiwhs-stroke" data-item-order="-263076" transform="translate(52, 123)"><g id="cp_1_container_8yed9m1cmiwhs-stroke" fill="none" stroke-linecap="round" stroke-linejoin="round" stroke-miterlimit="4" stroke="#ffffff" stroke-width="2" stroke-opacity="1"><g><path d="M 125.5 95.5L 76 141L 73.5 140.9057M 125.5 95.5L 122 66M 125.5 95.5L 108 96.5M 122 66L 88 80.5M 122 66L 108 96.5M 88 80.5L 95 52M 88 80.5L 71 140.8113M 88 80.5L 108 96.5M 95 52L 64 10M 95 52L 62 65M 64 10L 35.5 57M 64 10L 62 65M 35.5 57L 42 82.5M 35.5 57L 62 65M 42 82.5L 13.5 73.5M 42 82.5L 26 100.5M 42 82.5L 56 140.2453M 13.5 73.5L 10 100.5M 13.5 73.5L 26 100.5M 10 100.5L 49.5 140L 53 140.1321M 10 100.5L 26 100.5M 26 100.5L 53 140.1321M 53 140.1321L 56 140.2453M 64.5 140.566L 62 65M 64.5 140.566L 56 140.2453M 64.5 140.566L 71 140.8113M 71 140.8113L 73.5 140.9057M 108 96.5L 73.5 140.9057"></path></g></g></g><g id="g-root-cp_2_container_1_8yed9m1cmiwht-fill" data-item-order="-263068" transform="translate(218, 127)"><g id="cp_2_container_1_8yed9m1cmiwht-fill-merged" stroke="none" fill="#de8431" fill-opacity="1"><g><path d="M10 73.5L70 10L130.5 67L70 132L10 73.5"></path></g></g></g><g id="g-root-cp_2_container_1_8yed9m1cmiwht-stroke" data-item-order="-263068" transform="translate(218, 127)"><g id="cp_2_container_1_8yed9m1cmiwht-stroke" fill="none" stroke-linecap="round" stroke-linejoin="round" stroke-miterlimit="4" stroke="#ffffff" stroke-width="2" stroke-opacity="1"><g><path d="M 10 73.5L 70 10M 10 73.5L 70 132M 10 73.5L 88.5 87M 70 10L 130.5 67M 70 10L 88.5 87M 130.5 67L 70 132M 130.5 67L 88.5 87M 70 132L 88.5 87"></path></g></g></g><g id="g-root-cp_3_container_2_8yed9m1cmiwhu-fill" data-item-order="-263060" transform="translate(399, 126)"><g id="cp_3_container_2_8yed9m1cmiwhu-fill-merged" stroke="none" fill="#e55753" fill-opacity="1"><g><path d="M10 85.5L57.5 134.5L104.5 80.5L96 70.5L45.5 64L18.5 74.5L10 85.5 M21 53L71 60L102 49L60 10L21 53"></path></g></g></g><g id="g-root-cp_3_container_2_8yed9m1cmiwhu-stroke" data-item-order="-263060" transform="translate(399, 126)"><g id="cp_3_container_2_8yed9m1cmiwhu-stroke" fill="none" stroke-linecap="round" stroke-linejoin="round" stroke-miterlimit="4" stroke="#ffffff" stroke-width="2" stroke-opacity="1"><g><path d="M 10 85.5L 57.5 134.5M 10 85.5L 18.5 74.5M 10 85.5L 71 95.5M 57.5 134.5L 104.5 80.5M 57.5 134.5L 71 95.5M 104.5 80.5L 96 70.5M 104.5 80.5L 71 95.5M 96 70.5L 45.5 64L 18.5 74.5M 96 70.5L 67 81.5M 18.5 74.5L 67 81.5M 71 95.5L 67 81.5M 71 60L 21 53L 60 10M 71 60L 102 49L 60 10M 71 60L 60 10"></path></g></g></g><g id="g-root-cp_4_container_3_2rd0q1cmixaj-fill" data-item-order="-263052" transform="translate(566, 146)"><g id="cp_4_container_3_2rd0q1cmixaj-fill-merged" stroke="none" fill="#de58a9" fill-opacity="1"><g><path d="M10.64 36.341L57.588 94.293L105.197 36.341C106.96 34.805 106.519 29.098 96.601 19.219C93.294 15.927 84.566 10 57.588 10C30.609 10 20.779 15.927 17.914 19.219C9.318 29.098 9.318 33.488 10.64 36.341"></path></g></g></g><g id="g-root-cp_4_container_3_2rd0q1cmixaj-stroke" data-item-order="-263052" transform="translate(566, 146)"><g id="cp_4_container_3_2rd0q1cmixaj-stroke" fill="none" stroke-linecap="round" stroke-linejoin="round" stroke-miterlimit="4" stroke="#ffffff" stroke-width="2" stroke-opacity="1"><g><path d="M 10.6402 36.3415L 57.5878 94.2927L 105.1966 36.3415M 10.6402 36.3415C 9.3177 33.4878 9.3177 29.0976 17.9137 19.2195M 10.6402 36.3415C 38.412 50.8293 91.9719 46.2195 105.1966 36.3415M 105.1966 36.3415C 106.9599 34.8049 106.519 29.0976 96.6006 19.2195M 96.6006 19.2195C 95.2781 22.5122 85.6241 29.0976 57.5878 29.0976C 29.5515 29.0976 19.4566 22.5122 17.9137 19.2195M 96.6006 19.2195C 93.2944 15.9268 84.5661 10 57.5878 10C 30.6094 10 20.7791 15.9268 17.9137 19.2195"></path></g></g></g><g id="g-root-tx_software_2rd0q1cmixak-fill" data-item-order="0" transform="translate(254.26953125, 38)"><g id="tx_software_2rd0q1cmixak-fill-merged" stroke="none" fill="#484848" fill-opacity="1"><g><text style="font: bold 25px Roboto, sans-serif; white-space: pre;" transform="translate(117.73046875, 25)" font-weight="bold" font-size="25px" font-family="Roboto, sans-serif"><tspan x="-105.73" y="14.5" dominant-baseline="ideographic">Software Evolution</tspan></text></g></g></g><g id="g-root-tx_software_2rd0q1cmixak-stroke" data-item-order="0" transform="translate(254.26953125, 38)"></g><g id="g-root-tx_staticsy_1uoodyi1cmiupx-fill" data-item-order="0" transform="translate(45.59765625, 308)"><g id="tx_staticsy_1uoodyi1cmiupx-fill-merged" stroke="none" fill="#e0cb15" fill-opacity="1"><g><text style="font: bold 20px Roboto, sans-serif; white-space: pre;" transform="translate(74.40234375, 22)" font-weight="bold" font-size="20px" font-family="Roboto, sans-serif"><tspan x="-62.4" y="11.5" dominant-baseline="ideographic">Static System</tspan></text></g></g></g><g id="g-root-tx_staticsy_1uoodyi1cmiupx-stroke" data-item-order="0" transform="translate(45.59765625, 308)"></g><g id="g-root-tx_newrequi_1lt1dpm1cmivin-fill" data-item-order="0" transform="translate(213.13671875, 296)"><g id="tx_newrequi_1lt1dpm1cmivin-fill-merged" stroke="none" fill="#de8431" fill-opacity="1"><g><text style="font: bold 20px Roboto, sans-serif; white-space: pre;" transform="translate(74.86328125, 34)" font-weight="bold" font-size="20px" font-family="Roboto, sans-serif"><tspan x="-19.8" y="-0.5" dominant-baseline="ideographic">New </tspan><tspan x="-62.86" y="23.5" dominant-baseline="ideographic">Requirements</tspan></text></g></g></g><g id="g-root-tx_newrequi_1lt1dpm1cmivin-stroke" data-item-order="0" transform="translate(213.13671875, 296)"></g><g id="g-root-tx_collabin_1q8uvu21cmivi9-fill" data-item-order="0" transform="translate(394.8359375, 296)"><g id="tx_collabin_1q8uvu21cmivi9-fill-merged" stroke="none" fill="#e55753" fill-opacity="1"><g><text style="font: bold 20px Roboto, sans-serif; white-space: pre;" transform="translate(61.1640625, 34)" font-weight="bold" font-size="20px" font-family="Roboto, sans-serif"><tspan x="-28.47" y="-0.5" dominant-baseline="ideographic">Collab </tspan><tspan x="-49.16" y="23.5" dominant-baseline="ideographic">Integration</tspan></text></g></g></g><g id="g-root-tx_collabin_1q8uvu21cmivi9-stroke" data-item-order="0" transform="translate(394.8359375, 296)"></g><g id="g-root-tx_evolving_1hd7vl61cmiwaz-fill" data-item-order="0" transform="translate(571.70703125, 296)"><g id="tx_evolving_1hd7vl61cmiwaz-fill-merged" stroke="none" fill="#de58a9" fill-opacity="1"><g><text style="font: bold 20px Roboto, sans-serif; white-space: pre;" transform="translate(52.29296875, 34)" font-weight="bold" font-size="20px" font-family="Roboto, sans-serif"><tspan x="-40.29" y="-0.5" dominant-baseline="ideographic">Evolving </tspan><tspan x="-36.27" y="23.5" dominant-baseline="ideographic">System</tspan></text></g></g></g><g id="g-root-tx_evolving_1hd7vl61cmiwaz-stroke" data-item-order="0" transform="translate(571.70703125, 296)"></g><g id="g-root-tx_rigiddif_1uoodyi1cmiupy-fill" data-item-order="0" transform="translate(52.77734375, 344)"><g id="tx_rigiddif_1uoodyi1cmiupy-fill-merged" stroke="none" fill="#484848" fill-opacity="1"><g><text style="font: 15px Roboto, sans-serif; white-space: pre;" transform="translate(67.22265625, 28)" font-size="15px" font-family="Roboto, sans-serif"><tspan x="-55.22" y="-0.5" dominant-baseline="ideographic">Rigid, difficult to </tspan><tspan x="-24.95" y="17.5" dominant-baseline="ideographic">update</tspan></text></g></g></g><g id="g-root-tx_rigiddif_1uoodyi1cmiupy-stroke" data-item-order="0" transform="translate(52.77734375, 344)"></g><g id="g-root-tx_products_1q8uvu21cmivi8-fill" data-item-order="0" transform="translate(211.546875, 356)"><g id="tx_products_1q8uvu21cmivi8-fill-merged" stroke="none" fill="#484848" fill-opacity="1"><g><text style="font: 15px Roboto, sans-serif; white-space: pre;" transform="translate(76.453125, 28)" font-size="15px" font-family="Roboto, sans-serif"><tspan x="-64.45" y="-0.5" dominant-baseline="ideographic">Products, services, </tspan><tspan x="-62.64" y="17.5" dominant-baseline="ideographic">processes change</tspan></text></g></g></g><g id="g-root-tx_products_1q8uvu21cmivi8-stroke" data-item-order="0" transform="translate(211.546875, 356)"></g><g id="g-root-tx_systemad_1hd7vl61cmiway-fill" data-item-order="0" transform="translate(383.953125, 356)"><g id="tx_systemad_1hd7vl61cmiway-fill-merged" stroke="none" fill="#484848" fill-opacity="1"><g><text style="font: 15px Roboto, sans-serif; white-space: pre;" transform="translate(72.046875, 28)" font-size="15px" font-family="Roboto, sans-serif"><tspan x="-60.05" y="-0.5" dominant-baseline="ideographic">System adapts to </tspan><tspan x="-37.67" y="17.5" dominant-baseline="ideographic">new needs</tspan></text></g></g></g><g id="g-root-tx_systemad_1hd7vl61cmiway-stroke" data-item-order="0" transform="translate(383.953125, 356)"></g><g id="g-root-tx_flexible_1hd7vl61cmiwb0-fill" data-item-order="0" transform="translate(544.92578125, 356)"><g id="tx_flexible_1hd7vl61cmiwb0-fill-merged" stroke="none" fill="#484848" fill-opacity="1"><g><text style="font: 15px Roboto, sans-serif; white-space: pre;" transform="translate(79.07421875, 28)" font-size="15px" font-family="Roboto, sans-serif"><tspan x="-67.07" y="-0.5" dominant-baseline="ideographic">Flexible, grows with </tspan><tspan x="-45.05" y="17.5" dominant-baseline="ideographic">the company</tspan></text></g></g></g><g id="g-root-tx_flexible_1hd7vl61cmiwb0-stroke" data-item-order="0" transform="translate(544.92578125, 356)"></g></g></g><path id="wqssud61bivr43" d="M65.283 12.757a.35.35 0 0 0 .584.157l5.203-5.141-6.183 3.523.396 1.461zm-2.216-11.7a.35.35 0 0 0-.522.305v3.111l3.276-1.868-2.754-1.548zm3.728 2.105l-4.25 2.421v2.445l6.391-3.644-2.141-1.222zm4.708 3.303a.35.35 0 0 0 0-.609l-1.592-.9-7.365 4.199v1.782a.35.35 0 0 0 .523.305l8.435-4.777z M44.542 2.513c0-.433.355-.783.792-.783s.792.35.792.783-.355.783-.792.783-.792-.35-.792-.783zm59.171 0c0-.433.355-.783.792-.783s.792.35.792.783-.355.783-.792.783-.792-.35-.792-.783zm-85.951 7.636h-1.27v-.487c-.276.201-.864.609-1.881.609-1.202 0-2.274-.794-2.137-2.078.118-1.106 1.153-1.584 1.848-1.727l2.17-.345c0-.539-.29-.956-1.064-1.006s-1.21.305-1.571 1.017l-1.124-.605c1.218-2.631 5.029-1.764 5.029.414v4.207zm-1.27-2.86c.006.396-.062 1.112-.819 1.59-.587.37-1.841.299-1.903-.395-.049-.555.461-.791.906-.898l1.816-.297zm72.662 2.86h-1.27v-.487c-.276.201-.864.609-1.881.609-1.202 0-2.274-.794-2.137-2.078.118-1.106 1.153-1.584 1.848-1.727l2.17-.345c0-.539-.29-.956-1.064-1.006s-1.21.305-1.571 1.017l-1.124-.605c1.218-2.631 5.029-1.764 5.029.414v4.207zm-1.27-2.86c.006.396-.062 1.112-.82 1.59-.587.37-1.841.299-1.903-.395-.049-.555.461-.791.906-.898l1.816-.297zM99.096 10.149H97.85v-8.45h1.246v4.895l2.68-2.559h1.738l-2.633 2.535 2.715 3.578h-1.556l-2.077-2.707-.867.844v1.863zm6.053-6.114h-1.255v6.113h1.255V4.035zm-59.2 0h-1.255v6.113h1.255V4.035zm5.584 6.113V1.697h1.255v2.695c.361-.346 1-.485 1.47-.485 1.452 0 2.477 1.082 2.457 2.448v3.792h-1.27v-3.68c0-.408-.214-1.339-1.315-1.339-.968 0-1.342.756-1.342 1.339v3.681h-1.255zm-4.76-4.894V4.039h.621a.45.45 0 0 0 .45-.45v-.855h1.251v1.305h1.309v1.215h-1.309v3.109c0 .293.105.664.648.664.365 0 .531-.035.736-.07v1.137s-.361.113-.857.113c-1.398 0-1.777-1.051-1.777-1.788V5.254h-1.071zM36.528 4.039h-1.394l2.191 6.106h1.125l1.234-3.918 1.238 3.918h1.129l2.188-6.106h-1.383l-1.359 3.93-1.256-3.93h-1.124l-1.242 3.957-1.348-3.957zM26.212 7.141c-.02 1.566 1.187 3.129 3.223 3.129 1.566 0 2.383-.918 2.734-1.719L31.172 8c-.315.399-.801 1.094-1.738 1.094-1.145 0-1.825-.781-1.891-1.52h4.625c.074-.284.148-.995-.03-1.559-.336-1.064-1.221-2.102-2.839-2.102s-3.088 1.152-3.088 3.227zm1.363-.75h3.348c-.055-.43-.566-1.301-1.623-1.301a1.79 1.79 0 0 0-1.725 1.301zm-8.758.75c.038 1.758 1.277 3.133 3.145 3.133 1.074 0 1.723-.477 1.961-.672v.547h1.242V1.703h-1.258v2.888c-.414-.36-1.062-.68-1.93-.68-1.91 0-3.198 1.473-3.16 3.23zm1.309-.08c0 1.119.723 1.978 1.836 1.978a1.88 1.88 0 0 0 1.94-1.904c0-1.371-1.011-1.99-1.972-1.99s-1.805.798-1.805 1.916zm76.683-.028C96.771 5.275 95.532 3.9 93.664 3.9c-1.074 0-1.723.477-1.961.672v-.547h-1.242v8.22h1.258V9.583c.414.36 1.063.68 1.93.68 1.91 0 3.198-1.473 3.16-3.23zm-1.309.08c0-1.119-.723-1.978-1.836-1.978a1.88 1.88 0 0 0-1.94 1.904c0 1.371 1.011 1.99 1.972 1.99S95.5 8.231 95.5 7.113zM106.441 10.173V4.036h1.254v.382c.361-.346 1-.485 1.47-.485 1.452 0 2.477 1.082 2.457 2.448v3.792h-1.27V6.492c0-.408-.214-1.339-1.315-1.339-.969 0-1.342.756-1.342 1.339v3.681h-1.254zm-30.383-.021V1.824h1.084l4.215 5.777V1.824h1.32v8.328h-1.094l-4.207-5.796v5.796h-1.319zM5.24 10.149H4V2.377h1.014l2.664 3.597 2.654-3.592h1.03v7.766h-1.256V4.762L7.678 8.068 5.24 4.742v5.407z" transform="translate(20, 440)" fill="#80808088" stroke="none"></path></svg>