<?xml version="1.0" encoding="utf-8" standalone="yes"?>
<!DOCTYPE svg PUBLIC "-//W3C//DTD SVG 1.1//EN" "http://www.w3.org/Graphics/SVG/1.1/DTD/svg11.dtd">
<svg style="fill:none;stroke:none;fill-rule:evenodd;clip-rule:evenodd;stroke-linecap:round;stroke-linejoin:round;stroke-miterlimit:1.5;" version="1.1" xmlns="http://www.w3.org/2000/svg" xmlns:xlink="http://www.w3.org/1999/xlink" width="893" height="522" viewBox="0 0 893 522"><style class="text-font-style fontImports" data-font-family="Roboto">@import url(https://fonts.googleapis.com/css2?family=Roboto:wght@400;700&amp;amp;display=block);</style><rect id="" x="0" y="0" width="892.744" height="522" style="fill: #ffffff;"></rect><g id="items" style="isolation: isolate"><g id="blend" style="mix-blend-mode: normal"><g id="g-root-tf_18lba301870mpx-fill" data-item-order="-699019"><g id="tf_18lba301870mpx-fill-merged" stroke="none" fill="#ffffff" fill-opacity="1"><g><path d="M0 0 H892.74 V522 H0 V0"></path></g></g></g><g id="g-root-tf_18lba301870mpx-stroke" data-item-order="-699019"></g><g id="g-root-sy_5_cu_de7fm41874umi-fill" data-item-order="-260873" transform="translate(693.6793212890625, 107.1737060546875)"><g id="sy_5_cu_de7fm41874umi-fill-merged" stroke="none" fill="url(#gradient-ffeb37-386795387)" fill-opacity="1"><g><path d="M109.203 77.809C100.575 84.928 100.611 96.988 107.452 105.28C114.292 113.572 126.126 115.901 134.754 108.782C147.704 98.1 149.636 73.064 149.809 70.337C147.1 69.989 122.153 67.127 109.203 77.809 M75.864 58.623C84.492 65.741 84.456 77.801 77.615 86.093C70.775 94.386 58.941 96.714 50.313 89.596C37.363 78.913 35.431 53.877 35.258 51.151C37.967 50.803 62.914 47.94 75.864 58.623 M49.048 183.685C56.958 175.776 68.959 176.963 76.56 184.565C84.162 192.166 85.349 204.167 77.44 212.077C65.569 223.948 40.463 223.48 37.733 223.392C37.645 220.662 37.177 195.556 49.048 183.685 M125.062 193.711C120.954 188.591 113.877 188.515 108.956 192.463C104.035 196.41 102.574 203.335 106.682 208.456C112.846 216.14 127.522 217.475 129.12 217.599C129.346 216.012 131.226 201.396 125.062 193.711 M102.482 37.824C98.26 42.85 99.565 49.806 104.396 53.864C109.227 57.921 116.304 58.004 120.525 52.978C126.861 45.434 125.31 30.779 125.12 29.188C123.519 29.275 108.818 30.279 102.482 37.824 M82.583 18.636C86.805 23.663 85.5 30.619 80.669 34.676C75.838 38.733 68.761 38.817 64.54 33.79C58.204 26.246 59.755 11.592 59.945 10C61.545 10.088 76.247 11.092 82.583 18.636 M122.875 128.809C109.907 134.582 105.854 149.341 111.402 161.804C116.95 174.267 130.629 181.134 143.597 175.361C163.06 166.697 173.927 136.74 175.065 133.465C171.87 132.12 142.338 120.145 122.875 128.809 M62.19 109.622C75.158 115.395 79.211 130.154 73.663 142.617C68.115 155.08 54.436 161.946 41.468 156.173C22.004 147.509 11.138 117.553 10 114.278C13.195 112.932 42.727 100.958 62.19 109.622 M90.978 60.499C90.978 50.958 88.247 41.545 80.791 34.716C91.005 42.86 93.988 55.17 94.163 67.807C95.155 64.642 96.603 60.02 104.275 53.904C98.252 61.78 94.298 71.047 94.298 77.304L94.914 118.504C96.402 115.01 100.713 108.816 107.827 105.202C100.761 110.788 96.539 122.049 95.064 128.534L95.755 174.775C97.819 171.164 102.9 165.19 111.752 161.747C102.908 167.1 95.755 178.806 95.889 183.687L95.981 189.846C97.97 187.022 103.065 184.833 109.506 193.235C101.597 184.677 96.11 192.619 96.11 198.495L96.833 246.826 H88.258L89.095 189.512C89.095 184.66 83.482 176.9 75.928 185.073C82.125 176.99 87.076 178.709 89.214 181.366L89.447 165.412C89.583 159.27 82.589 148.173 73.314 142.56C82.584 146.165 87.719 152.546 89.583 156.082L90.248 110.511C89.047 104.3 84.75 91.952 77.239 86.015C84.806 89.858 89.201 96.622 90.402 99.949L90.978 60.499"></path></g></g></g><g id="g-root-sy_5_cu_de7fm41874umi-stroke" data-item-order="-260873" transform="translate(693.6793212890625, 107.1737060546875)"><g id="sy_5_cu_de7fm41874umi-stroke" fill="none" stroke-linecap="round" stroke-linejoin="round" stroke-miterlimit="4" stroke="#484848" stroke-width="2" stroke-opacity="1"><g><path d="M 107.451539 105.280007C 100.610901 96.98774 100.574646 84.927514 109.203309 77.809349C 122.153077 67.126534 147.099854 69.989388 149.809388 70.337258C 149.635865 73.063561 147.704041 98.099602 134.754273 108.782433C 126.125611 115.900582 114.292176 113.572274 107.451539 105.280007ZM 107.451172 105.279702L 145.002686 74.301888M 141.446412 85.066506C 139.267457 84.100319 133.443055 84.298775 130.201905 86.511971C 132.990845 83.750542 134.292969 78.070168 133.758545 75.7472M 137.258973 94.509453C 133.890259 92.411202 125.67688 91.058098 121.704407 93.52221C 124.878846 90.090691 125.111695 81.769799 123.692139 78.063607M 130.845582 103.485207C 126.594727 100.813973 116.261475 99.041924 111.289246 102.114022C 115.250611 97.816567 115.475281 87.334832 113.660828 82.65374M 77.615357 86.093483C 84.455994 77.801217 84.492249 65.74099 75.863587 58.622826C 62.913819 47.94001 37.967041 50.802872 35.257508 51.150734C 35.431031 53.877037 37.362854 78.913079 50.312623 89.59591C 58.941285 96.714058 70.77472 94.38575 77.615357 86.093483ZM 77.615723 86.093178L 40.064209 55.115365M 43.620484 65.879982C 45.799439 64.913796 51.623841 65.112252 54.864991 67.325448C 52.07605 64.564019 50.773926 58.883645 51.30835 56.560677M 47.807923 75.32293C 51.176636 73.224678 59.390015 71.871575 63.362488 74.335686C 60.18805 70.904168 59.955201 62.583275 61.374756 58.877083M 54.221253 84.298699C 58.472107 81.627465 68.805359 79.855416 73.777588 82.927514C 69.816224 78.630059 69.591553 68.148323 71.406006 63.467232M 76.560486 184.564553C 68.95929 176.963387 56.957642 175.775658 49.048096 183.685219C 37.177491 195.555764 37.645203 220.661873 37.732728 223.392281C 40.463135 223.479836 65.569275 223.947518 77.43982 212.076973C 85.349366 204.167397 84.161683 192.165749 76.560486 184.564553ZM 76.561341 184.564492L 42.139405 218.986458M 53.193787 216.474282C 52.440125 214.213021 53.193787 208.434182 55.70636 205.419167C 52.691285 207.931649 46.912537 208.685433 44.651185 207.931649M 62.992005 213.208291C 61.224976 209.65458 60.662354 201.349556 63.494507 197.630532C 59.775574 200.462777 51.470459 199.900063 47.916749 198.133065M 72.540101 207.680367C 70.286988 203.193917 69.509705 192.738656 73.042603 188.082497C 68.386475 191.615395 57.931214 190.838143 53.444764 188.58503M 108.956299 192.462838C 113.877137 188.515389 120.954285 188.590981 125.061829 193.711342C 131.226441 201.396096 129.346192 216.011696 129.12024 217.598885C 127.521851 217.475167 112.846375 216.14048 106.681702 208.455727C 102.574219 203.335366 104.035462 196.410317 108.956299 192.462838ZM 108.956238 192.462899L 125.053467 212.529427M 116.50354 211.009255C 117.653565 209.217904 118.439637 204.822731 117.147156 202.67405C 118.964356 204.401802 123.425415 204.587746 125.423584 203.853646M 110.472901 205.817025C 111.922852 203.578133 112.939515 198.101387 111.343567 195.437569C 113.59784 197.573281 119.164612 197.768837 121.664734 196.838997M 104.395874 53.863594C 99.565125 49.80642 98.26001 42.850251 102.48169 37.823578C 108.817688 30.27948 123.519471 29.275292 125.12024 29.187561C 125.310425 30.779442 126.86139 45.43364 120.525391 52.977745C 116.303711 58.004403 109.226685 57.920769 104.395874 53.863594ZM 104.395386 53.863625L 120.940003 34.164338M 121.116944 42.844857C 119.135804 42.065979 114.671692 42.151528 112.816102 43.838005C 114.156556 41.718903 113.469544 37.307152 112.360108 35.490365M 117.199585 49.773568C 114.72107 48.787713 109.151185 48.857933 106.849488 50.942391C 108.504883 48.315133 107.611817 42.816979 106.212586 40.546029M 80.669068 34.676094C 85.499817 30.61892 86.804932 23.662751 82.583252 18.636078C 76.247254 11.09198 61.545472 10.087792 59.944703 10.000061C 59.754517 11.591942 58.203553 26.24614 64.539551 33.790238C 68.761231 38.81691 75.838257 38.733269 80.669068 34.676094ZM 80.669434 34.67611L 64.124817 14.976815M 63.948975 23.657357C 65.930115 22.878479 70.394227 22.964028 72.249817 24.650505C 70.909363 22.531403 71.596375 18.119652 72.705811 16.302865M 67.865296 30.586068C 70.343811 29.600213 75.913697 29.670433 78.215394 31.754891C 76.559998 29.127633 77.453064 23.629479 78.852295 21.358529M 111.402283 161.804375C 105.854432 149.341301 109.906556 134.582253 122.875245 128.809349C 142.338379 120.14544 171.869935 132.119667 175.064942 133.465355C 173.926697 136.740059 163.060486 166.696984 143.597352 175.360878C 130.628724 181.133797 116.950196 174.267449 111.402283 161.804375ZM 111.402588 161.804238L 167.84137 136.680855M 159.836304 148.634713C 157.500123 146.713082 150.310853 144.977456 145.595887 146.582741C 149.944092 144.153511 153.465699 137.649971 153.601319 134.62806M 151.508484 158.758812C 148.102051 155.048882 138.518677 150.604454 132.824219 152.268212C 137.871399 149.150414 140.982544 139.055108 140.505555 134.041146M 140.616394 167.556008C 136.32605 162.845894 124.292786 157.169167 117.169495 159.236809C 123.472962 155.327492 127.307984 142.587105 126.679383 136.246987M 73.662659 142.616875C 79.210511 130.153801 75.158387 115.394753 62.189698 109.621849C 42.726563 100.95794 13.195008 112.932167 10 114.277855C 11.138245 117.552559 22.004456 147.509484 41.467591 156.173378C 54.436219 161.946297 68.114747 155.079949 73.662659 142.616875ZM 73.662171 142.616677L 17.223389 117.493294M 25.228638 129.447213C 27.56482 127.525582 34.75409 125.789956 39.469056 127.395241C 35.12085 124.966011 31.599244 118.462471 31.463624 115.44056M 33.556397 139.571312C 36.96283 135.861382 46.546204 131.416954 52.240662 133.080712C 47.193482 129.962914 44.082337 119.867608 44.559327 114.853646M 44.448487 148.368721C 48.738831 143.658608 60.772095 137.981881 67.895386 140.049523C 61.591919 136.140206 57.756897 123.399819 58.385499 117.0597M 90.978209 60.49945C 90.978209 50.95775 88.247409 41.54455 80.790609 34.71595C 91.004909 42.85975 93.987709 55.16965 94.163009 67.80735C 95.154909 64.64175 96.603209 60.01995 104.274509 53.90365C 98.251909 61.78005 94.297709 71.04715 94.297709 77.30395L 94.913809 118.50355C 96.402409 115.01045 100.713009 108.81555 107.826909 105.20225C 100.760809 110.78805 96.539409 122.04855 95.063809 128.53385L 95.755309 174.77445C 97.818809 171.16355 102.900009 165.18965 111.751909 161.74715C 102.908209 167.09995 95.755309 178.80545 95.888609 183.68685L 95.980709 189.84635C 97.969709 187.02225 103.065009 184.83285 109.506109 193.23475C 101.597309 184.67725 96.110009 192.61865 96.110009 198.49535L 96.832709 246.82565L 88.258409 246.82565L 89.095009 189.51215C 89.095009 184.65965 83.481509 176.90005 75.928409 185.07255C 82.124909 176.98995 87.075809 178.70905 89.213909 181.36565L 89.446809 165.41225C 89.583009 159.26965 82.589009 148.17325 73.314209 142.55955C 82.584009 146.16445 87.718709 152.54555 89.583009 156.08195L 90.248209 110.51075C 89.046509 104.29995 84.749709 91.95175 77.239209 86.01455C 84.806209 89.85795 89.201409 96.62235 90.402309 99.94905L 90.978209 60.49945Z"></path></g></g></g><g id="g-root-sy_5_cu_1_3debw1874t1n-fill" data-item-order="-260871" transform="translate(734.3626098632812, 344)"><g id="sy_5_cu_1_3debw1874t1n-fill-merged" stroke="none" fill="url(#gradient-b6b6b6-338031228)" fill-opacity="1"><g><path d="M87.369 22L77.593 79.721C77.327 81.046 76.161 82 74.806 82 H28.299C26.944 82 25.778 81.046 25.512 79.721L15.735 22 H14.623C13.319 22 12.182 21.168 11.866 19.981L10.087 13.314C9.637 11.631 10.994 10 12.844 10 H90.856C92.706 10 94.063 11.631 93.614 13.314L91.835 19.981C91.518 21.168 90.381 22 89.077 22 H87.369"></path></g></g></g><g id="g-root-sy_5_cu_1_3debw1874t1n-stroke" data-item-order="-260871" transform="translate(734.3626098632812, 344)"><g id="sy_5_cu_1_3debw1874t1n-stroke" fill="none" stroke-linecap="round" stroke-linejoin="round" stroke-miterlimit="4" stroke="#484848" stroke-width="2" stroke-opacity="1"><g><path d="M 10.086561 13.3142C 9.637361 11.631 10.994361 10 12.844061 10L 90.856361 10C 92.706061 10 94.063061 11.631 93.613961 13.3142L 91.834961 19.9809C 91.518261 21.1676 90.381461 22 89.077461 22L 14.623061 22C 13.318961 22 12.182161 21.1676 11.865561 19.9809L 10.086561 13.3142ZM 15.735413 22L 87.369413 22L 77.593013 79.7212C 77.327213 81.0462 76.160613 82 74.805613 82L 28.299213 82C 26.944213 82 25.777513 81.0462 25.511813 79.7212L 15.735413 22Z"></path></g></g></g><g id="g-root-sy_4_cu_1uony6k1874tms-fill" data-item-order="-260867" transform="translate(513.5230712890625, 159.29974365234375)"><g id="sy_4_cu_1uony6k1874tms-fill-merged" stroke="none" fill="url(#gradient-bceb57-497517668)" fill-opacity="1"><g><path d="M76.177 52.69C84.806 59.808 84.769 71.869 77.929 80.161C71.088 88.453 59.255 90.781 50.626 83.663C37.676 72.98 35.745 47.944 35.571 45.218C38.281 44.87 63.227 42.007 76.177 52.69 M125.376 141.586C121.269 136.466 114.192 136.39 109.271 140.338C104.35 144.285 102.889 151.21 106.996 156.331C113.161 164.015 127.836 165.35 129.435 165.474C129.661 163.887 131.541 149.271 125.376 141.586 M102.796 32.18C98.574 37.207 99.88 44.163 104.71 48.22C109.541 52.277 116.618 52.361 120.84 47.334C127.176 39.79 125.625 25.136 125.435 23.544C123.834 23.632 109.132 24.636 102.796 32.18 M82.898 18.636C87.119 23.663 85.814 30.619 80.984 34.676C76.153 38.733 69.076 38.817 64.854 33.79C58.518 26.246 60.069 11.592 60.259 10C61.86 10.088 76.562 11.092 82.898 18.636 M123.19 76.684C110.221 82.457 106.169 97.216 111.717 109.679C117.265 122.142 130.943 129.009 143.912 123.236C163.375 114.572 174.241 84.615 175.379 81.34C172.184 79.995 142.653 68.02 123.19 76.684 M62.19 100.223C75.158 105.996 79.211 120.755 73.663 133.218C68.115 145.681 54.436 152.548 41.468 146.775C22.004 138.111 11.138 108.154 10 104.879C13.195 103.534 42.727 91.559 62.19 100.223 M91.323 58.442C91.323 52.184 88.717 41.686 81.107 34.716C89.275 41.228 93.999 51.797 94.451 62.25C95.443 59.084 96.918 54.377 104.589 48.261C98.547 56.162 94.602 65.85 94.602 71.717L95.382 124.005C96.793 120.748 101.984 113.543 112.066 109.622C101.953 115.743 95.603 128.719 95.532 134.077L95.603 138.816C96.925 135.633 102.563 131.642 109.821 141.109C100.444 130.963 95.761 143.585 95.761 149.419L96.437 194.701 H89.283L89.859 156.282C89.859 150.229 83.079 138.794 73.629 133.074C83.075 136.747 88.227 143.304 90.001 146.795L90.627 104.923C90.627 98.857 85.206 86.131 77.554 80.082C85.278 84.005 89.697 90.972 90.787 94.219L91.323 58.442"></path></g></g></g><g id="g-root-sy_4_cu_1uony6k1874tms-stroke" data-item-order="-260867" transform="translate(513.5230712890625, 159.29974365234375)"><g id="sy_4_cu_1uony6k1874tms-stroke" fill="none" stroke-linecap="round" stroke-linejoin="round" stroke-miterlimit="4" stroke="#484848" stroke-width="2" stroke-opacity="1"><g><path d="M 77.928833 80.160813C 84.769471 71.868546 84.805726 59.808319 76.177063 52.690155C 63.227295 42.00734 38.280518 44.870194 35.570984 45.218064C 35.744507 47.944367 37.676331 72.980408 50.626099 83.663239C 59.254761 90.781388 71.088196 88.45308 77.928833 80.160813ZM 77.9292 80.160508L 40.377686 49.182694M 43.93396 59.947312C 46.112915 58.981125 51.937317 59.179581 55.178467 61.392777C 52.389527 58.631348 51.087403 52.950974 51.621827 50.628006M 48.121399 69.390259C 51.490113 67.292008 59.703492 65.938904 63.675965 68.403016C 60.501526 64.971497 60.268677 56.650605 61.688233 52.944413M 54.53479 78.366028C 58.785645 75.694794 69.118897 73.922745 74.091126 76.994843C 70.129761 72.697388 69.905091 62.215653 71.719544 57.534562M 109.270752 140.337784C 114.19159 136.390335 121.268738 136.465928 125.376282 141.586289C 131.540894 149.271042 129.660645 163.886643 129.434693 165.473832C 127.836304 165.350113 113.160828 164.015427 106.996155 156.330674C 102.888672 151.210312 104.349915 144.285263 109.270752 140.337784ZM 109.270691 140.336869L 125.36792 160.403397M 116.817994 158.884201C 117.968018 157.09285 118.75409 152.697678 117.461609 150.548996C 119.278809 152.276749 123.739869 152.462693 125.738038 151.728592M 110.787415 153.691971C 112.237366 151.45308 113.254029 145.976334 111.658082 143.312516C 113.912354 145.448227 119.479126 145.643784 121.979249 144.713944M 104.710328 48.219986C 99.879578 44.162812 98.574463 37.206635 102.796143 32.179978C 109.132142 24.63588 123.833924 23.631684 125.434693 23.543946C 125.624878 25.135834 127.175843 39.790024 120.839844 47.334137C 116.618165 52.360794 109.541138 52.277161 104.710328 48.219986ZM 104.709961 48.220002L 121.254578 28.520707M 121.431397 37.201249C 119.450257 36.422364 114.986145 36.50792 113.130555 38.194397C 114.471009 36.075287 113.783997 31.663544 112.674561 29.846756M 117.5141 44.12996C 115.035584 43.144104 109.465699 43.214325 107.164002 45.298783C 108.819397 42.671524 107.926331 37.173371 106.5271 34.90242M 80.983521 34.676041C 85.81427 30.618866 87.119385 23.66269 82.897706 18.636032C 76.561707 11.091935 61.859925 10.087738 60.259156 10C 60.06897 11.591889 58.518006 26.246079 64.854004 33.790192C 69.075684 38.816849 76.15271 38.733216 80.983521 34.676041ZM 80.983887 34.676056L 64.43927 14.976761M 64.262452 23.657303C 66.243592 22.878418 70.707703 22.963974 72.563294 24.650452C 71.22284 22.531342 71.909852 18.119599 73.019288 16.302811M 68.179749 30.586014C 70.658265 29.600159 76.22815 29.67038 78.529847 31.754837C 76.874451 29.127579 77.767518 23.629425 79.166749 21.358475M 111.716736 109.679322C 106.168885 97.216248 110.221009 82.457199 123.189698 76.684296C 142.652832 68.020386 172.184388 79.994614 175.379395 81.340302C 174.24115 84.615006 163.374939 114.57193 143.911805 123.235825C 130.943177 129.008744 117.264649 122.142395 111.716736 109.679322ZM 111.717041 109.679184L 168.155823 84.555802M 160.150757 96.509659C 157.814576 94.588028 150.625306 92.852402 145.91034 94.457688C 150.258545 92.028458 153.780152 85.524918 153.915772 82.503006M 151.822999 106.633759C 148.416565 102.923829 138.833191 98.479401 133.138733 100.143158C 138.185914 97.025361 141.297059 86.930054 140.820069 81.916092M 140.930909 115.430954C 136.640564 110.720841 124.6073 105.044114 117.484009 107.111756C 123.787476 103.202439 127.622498 90.462052 126.993897 84.121933M 73.662659 133.218369C 79.210511 120.75531 75.158387 105.996262 62.189698 100.223359C 42.726563 91.559449 13.195008 103.533677 10 104.879364C 11.138245 108.154068 22.004456 138.110978 41.467591 146.774887C 54.436219 152.547806 68.114747 145.681443 73.662659 133.218369ZM 73.976624 133.130295L 17.537842 108.006913M 25.544068 119.960831C 27.880249 118.0392 35.069519 116.303574 39.784485 117.90886C 35.43628 115.47963 31.914673 108.97609 31.779053 105.954178M 33.87085 130.083939C 37.277283 126.374024 46.860657 121.929596 52.555115 123.593354C 47.507935 120.475556 44.39679 110.380249 44.87378 105.366288M 44.76294 138.88234C 49.053284 134.172226 61.086548 128.495499 68.209839 130.563126C 61.906373 126.653824 58.071351 113.913437 58.699952 107.573319M 91.322963 58.441997C 91.322963 52.183697 88.717463 41.685597 81.106663 34.715897C 89.274763 41.228297 93.999263 51.797397 94.450663 62.249797C 95.442563 59.084097 96.917663 54.376997 104.588963 48.260697C 98.547063 56.162297 94.602163 65.849997 94.602163 71.716997L 95.382063 124.005197C 96.793263 120.748297 101.983763 113.542997 112.066363 109.621997C 101.952663 115.743397 95.602963 128.719297 95.532263 134.076697L 95.602963 138.815997C 96.924663 135.632797 102.562863 131.641997 109.820763 141.109297C 100.443563 130.962897 95.761163 143.584897 95.761163 149.419197L 96.436563 194.700397L 89.283463 194.700397L 89.858563 156.281497C 89.858563 150.228397 83.079063 138.793497 73.628663 133.073597C 83.075263 136.747197 88.227463 143.303997 90.000563 146.795197L 90.627263 104.922597C 90.627263 98.856597 85.205763 86.130997 77.553663 80.081897C 85.277763 84.005097 89.697063 90.971797 90.787463 94.219097L 91.322963 58.441997Z"></path></g></g></g><g id="g-root-sy_4_cu_1_1lt0xxo1874ufh-fill" data-item-order="-260865" transform="translate(554.3626098632812, 344)"><g id="sy_4_cu_1_1lt0xxo1874ufh-fill-merged" stroke="none" fill="url(#gradient-b6b6b6-338031228)" fill-opacity="1"><g><path d="M87.369 22L77.593 79.721C77.327 81.046 76.161 82 74.806 82 H28.299C26.944 82 25.778 81.046 25.512 79.721L15.735 22 H14.623C13.319 22 12.182 21.168 11.866 19.981L10.087 13.314C9.637 11.631 10.994 10 12.844 10 H90.856C92.706 10 94.063 11.631 93.614 13.314L91.835 19.981C91.518 21.168 90.381 22 89.077 22 H87.369"></path></g></g></g><g id="g-root-sy_4_cu_1_1lt0xxo1874ufh-stroke" data-item-order="-260865" transform="translate(554.3626098632812, 344)"><g id="sy_4_cu_1_1lt0xxo1874ufh-stroke" fill="none" stroke-linecap="round" stroke-linejoin="round" stroke-miterlimit="4" stroke="#484848" stroke-width="2" stroke-opacity="1"><g><path d="M 10.086561 13.3142C 9.637361 11.631 10.994361 10 12.844061 10L 90.856361 10C 92.706061 10 94.063061 11.631 93.613961 13.3142L 91.834961 19.9809C 91.518261 21.1676 90.381461 22 89.077461 22L 14.623061 22C 13.318961 22 12.182161 21.1676 11.865561 19.9809L 10.086561 13.3142ZM 15.735413 22L 87.369413 22L 77.593013 79.7212C 77.327213 81.0462 76.160613 82 74.805613 82L 28.299213 82C 26.944213 82 25.777513 81.0462 25.511813 79.7212L 15.735413 22Z"></path></g></g></g><g id="g-root-sy_3_cu_18i6wng1874sum-fill" data-item-order="-260861" transform="translate(359.08233642578125, 204.53411865234375)"><g id="sy_3_cu_18i6wng1874sum-fill-merged" stroke="none" fill="url(#gradient-64edab-240055791)" fill-opacity="1"><g><path d="M83.654 51.516C75.025 58.634 75.061 70.695 81.902 78.987C88.743 87.279 100.576 89.608 109.205 82.489C122.155 71.807 124.086 46.771 124.26 44.044C121.55 43.696 96.604 40.834 83.654 51.516 M50.606 32.328C59.235 39.446 59.198 51.506 52.358 59.799C45.517 68.091 33.684 70.419 25.055 63.301C12.105 52.618 10.174 27.582 10 24.856C12.71 24.508 37.656 21.645 50.606 32.328 M35.282 96.351C39.389 91.231 46.466 91.155 51.387 95.102C56.308 99.05 57.769 105.975 53.662 111.095C47.497 118.78 32.822 120.115 31.223 120.238C30.997 118.651 29.117 104.036 35.282 96.351 M76.933 18.636C72.711 23.663 74.017 30.619 78.847 34.676C83.678 38.733 90.755 38.817 94.977 33.79C101.313 26.246 99.762 11.592 99.572 10C97.971 10.088 83.269 11.092 76.933 18.636 M68.67 60.242C68.67 50.043 72.09 42.089 78.723 34.728C69.363 42.789 65.373 50.855 65.373 63.305L65.22 73.87C64.137 70.629 59.716 63.649 51.982 59.72C59.657 65.787 65.065 78.326 65.065 84.614L64.937 93.502C63.564 90.331 58.043 86.476 50.838 95.875C59.9 86.07 64.792 97.716 64.792 103.596L64.13 149.466 H69.862L69.209 103.722C69.209 97.476 74.637 84.948 82.278 78.908C74.582 82.817 70.167 89.747 69.056 93.009L68.67 60.242"></path></g></g></g><g id="g-root-sy_3_cu_18i6wng1874sum-stroke" data-item-order="-260861" transform="translate(359.08233642578125, 204.53411865234375)"><g id="sy_3_cu_18i6wng1874sum-stroke" fill="none" stroke-linecap="round" stroke-linejoin="round" stroke-miterlimit="4" stroke="#484848" stroke-width="2" stroke-opacity="1"><g><path d="M 81.902038 78.986985C 75.061401 70.694718 75.025116 58.634491 83.653808 51.516327C 96.603607 40.833512 121.550323 43.696366 124.259887 44.044236C 124.086364 46.770539 122.154571 71.80658 109.204773 82.489396C 100.57608 89.60756 88.742675 87.279251 81.902038 78.986985ZM 81.901641 78.986679L 119.453186 48.008866M 115.896911 58.773484C 113.717956 57.807297 107.893585 58.005753 104.652404 60.218949C 107.441314 57.45752 108.743438 51.777146 108.209045 49.454178M 111.709503 68.216431C 108.340759 66.11818 100.12738 64.765076 96.154907 67.229187C 99.329315 63.797669 99.562225 55.476777 98.142639 51.770585M 105.296081 77.192185C 101.045288 74.520951 90.712005 72.748902 85.739776 75.821C 89.701141 71.523545 89.925781 61.041809 88.111358 56.360718M 52.357849 59.798508C 59.198486 51.506241 59.234771 39.446015 50.606079 32.327851C 37.65628 21.645035 12.709564 24.507889 9.999969 24.855759C 10.173553 27.582062 12.105316 52.618103 25.055114 63.300934C 33.683807 70.419083 45.517212 68.090775 52.357849 59.798508ZM 52.358245 59.798203L 14.806701 28.820389M 18.248718 39.585007C 20.427673 38.618821 26.252044 38.817276 29.493225 41.030472C 26.704315 38.269043 25.402191 32.588669 25.936584 30.265702M 22.436126 49.027954C 25.80487 46.929703 34.018249 45.5766 37.990722 48.040711C 34.816314 44.609192 34.583404 36.2883 36.00299 32.582108M 28.850494 58.003724C 33.101287 55.332489 43.43457 53.56044 48.406799 56.632538C 44.445434 52.335083 44.220794 41.853348 46.035217 37.172257M 51.387268 95.102433C 46.46643 91.154984 39.389282 91.230576 35.281768 96.350937C 29.117126 104.035691 30.997375 118.651291 31.223297 120.23848C 32.821716 120.114762 47.497192 118.780075 53.661834 111.095322C 57.769378 105.974961 56.308105 99.049912 51.387268 95.102433ZM 51.38739 95.102646L 35.290161 115.169175M 43.840057 113.64885C 42.690002 111.857499 41.90393 107.462326 43.196441 105.313645C 41.379211 107.041397 36.918151 107.227341 34.919983 106.493241M 49.870605 108.45662C 48.420623 106.217728 47.403991 100.740982 48.999908 98.077164C 46.745666 100.212876 41.178863 100.408432 38.678772 99.478592M 78.847381 34.676041C 74.016571 30.618866 72.711486 23.66269 76.933166 18.636032C 83.269134 11.091935 97.970916 10.087738 99.571716 10C 99.761871 11.591889 101.312866 26.246079 94.976898 33.790192C 90.755218 38.816849 83.678161 38.733216 78.847381 34.676041ZM 78.846954 34.676056L 95.391571 14.976761M 95.56842 23.65828C 93.58728 22.879395 89.123169 22.964951 87.267608 24.651429C 88.608032 22.532319 87.921051 18.120575 86.811584 16.303788M 91.651153 30.586014C 89.172607 29.600159 83.602752 29.67038 81.301025 31.754837C 82.956451 29.127579 82.063385 23.629425 80.664123 21.358475M 68.670351 60.242416C 68.670351 50.042516 72.089751 42.089316 78.723451 34.727616C 69.362651 42.788616 65.372551 50.855016 65.372551 63.304816L 65.220251 73.870216C 64.137151 70.628516 59.716451 63.648616 51.982151 59.720216C 59.656551 65.787016 65.065351 78.325516 65.065351 84.614116L 64.937251 93.501816C 63.564451 90.331016 58.043251 86.476316 50.837951 95.874916C 59.899651 86.070016 64.791751 97.715616 64.791751 103.595616L 64.130451 149.465816L 69.862151 149.465816L 69.208951 103.721816C 69.208951 97.476216 74.636751 84.948116 82.277651 78.907916C 74.581751 82.816816 70.166651 89.746916 69.055951 93.009316L 68.670351 60.242416Z"></path></g></g></g><g id="g-root-sy_3_cu_1_142dej01874tmv-fill" data-item-order="-260859" transform="translate(374.3616638183594, 344)"><g id="sy_3_cu_1_142dej01874tmv-fill-merged" stroke="none" fill="url(#gradient-b6b6b6-338031228)" fill-opacity="1"><g><path d="M87.471 22L77.695 79.721C77.429 81.046 76.262 82 74.907 82 H28.401C27.046 82 25.879 81.046 25.613 79.721L15.837 22 H14.623C13.319 22 12.182 21.168 11.866 19.981L10.087 13.314C9.637 11.631 10.994 10 12.844 10 H90.856C92.706 10 94.063 11.631 93.614 13.314L91.835 19.981C91.518 21.168 90.381 22 89.077 22 H87.471"></path></g></g></g><g id="g-root-sy_3_cu_1_142dej01874tmv-stroke" data-item-order="-260859" transform="translate(374.3616638183594, 344)"><g id="sy_3_cu_1_142dej01874tmv-stroke" fill="none" stroke-linecap="round" stroke-linejoin="round" stroke-miterlimit="4" stroke="#484848" stroke-width="2" stroke-opacity="1"><g><path d="M 10.086531 13.3142C 9.637331 11.631 10.994331 10 12.844031 10L 90.856331 10C 92.706031 10 94.063031 11.631 93.613931 13.3142L 91.834931 19.9809C 91.518231 21.1676 90.381431 22 89.077431 22L 14.623031 22C 13.318931 22 12.182131 21.1676 11.865531 19.9809L 10.086531 13.3142ZM 15.836945 22L 87.470945 22L 77.694545 79.7212C 77.428745 81.0462 76.262145 82 74.907145 82L 28.400745 82C 27.045745 82 25.879045 81.0462 25.613345 79.7212L 15.836945 22Z"></path></g></g></g><g id="g-root-sy_2_cu_142dej01874tmw-fill" data-item-order="-260855" transform="translate(203.38101196289062, 252.8966064453125)"><g id="sy_2_cu_142dej01874tmw-fill-merged" stroke="none" fill="url(#gradient-4dd3ff-378786070)" fill-opacity="1"><g><path d="M58.851 18.078C50.223 25.196 50.259 37.256 57.099 45.548C63.94 53.841 75.773 56.169 84.402 49.051C97.352 38.368 99.284 13.332 99.457 10.606C96.748 10.258 71.801 7.395 58.851 18.078 M32.942 41.784C37.164 46.811 35.858 53.767 31.028 57.824C26.197 61.881 19.12 61.965 14.898 56.938C8.562 49.394 10.113 34.74 10.303 33.148C11.904 33.236 26.606 34.24 32.942 41.784 M57.475 45.47C50.021 51.362 44.494 61.969 44.494 69.825L45.059 101.104 H40.749L40.915 78.436C41.015 72.048 36.67 64.002 31.15 57.876C38.5 64.205 40.41 67.979 41.457 70.046C43.373 59.272 47.108 50.735 57.475 45.47"></path></g></g></g><g id="g-root-sy_2_cu_142dej01874tmw-stroke" data-item-order="-260855" transform="translate(203.38101196289062, 252.8966064453125)"><g id="sy_2_cu_142dej01874tmw-stroke" fill="none" stroke-linecap="round" stroke-linejoin="round" stroke-miterlimit="4" stroke="#484848" stroke-width="2" stroke-opacity="1"><g><path d="M 57.099457 45.548294C 50.25882 37.256027 50.222534 25.1958 58.851227 18.077636C 71.801026 7.394821 96.747742 10.257675 99.457337 10.605545C 99.283753 13.331848 97.35199 38.367904 84.402191 49.050705C 75.773499 56.168869 63.940094 53.840561 57.099457 45.548294ZM 57.09906 45.547989L 94.650604 14.570175M 91.09433 25.334793C 88.915375 24.368606 83.091004 24.567062 79.849823 26.780258C 82.638733 24.018829 83.940857 18.338455 83.406464 16.015487M 86.906922 34.777725C 83.538178 32.679489 75.324799 31.326385 71.352326 33.790512C 74.526734 30.358978 74.759644 22.038086 73.340058 18.331894M 80.4935 43.753494C 76.242706 41.08226 65.909424 39.310196 60.937195 42.382309C 64.89856 38.084854 65.1232 27.603119 63.308777 22.922027M 31.027649 57.824264C 35.85846 53.767074 37.163544 46.810928 32.941864 41.784256C 26.605896 34.240158 11.904099 33.235977 10.303299 33.148239C 10.113144 34.740127 8.562164 49.394302 14.898148 56.9384C 19.119827 61.965072 26.196869 61.881424 31.027649 57.824264ZM 31.028046 57.824264L 14.483444 38.124984M 14.30661 46.806503C 16.287766 46.027633 20.751862 46.113174 22.607437 47.799637C 21.266983 45.680557 21.953995 41.268783 23.063446 39.452011M 18.223877 53.734237C 20.702423 52.748398 26.272278 52.818618 28.574005 54.903061C 26.918579 52.275802 27.811646 46.777633 29.210907 44.506698M 57.47496 45.469589C 50.02096 51.362089 44.49366 61.969489 44.49366 69.824589L 45.05946 101.103789L 40.74906 101.103789L 40.91526 78.435689C 41.01466 72.047789 36.67036 64.001889 31.15036 57.876189C 38.49966 64.205089 40.41016 67.978789 41.45666 70.046289C 43.37256 59.271689 47.10786 50.735189 57.47496 45.469589Z"></path></g></g></g><g id="g-root-sy_2_cu_1_zmjwek1874uf5-fill" data-item-order="-260853" transform="translate(194.3626708984375, 344.000244140625)"><g id="sy_2_cu_1_zmjwek1874uf5-fill-merged" stroke="none" fill="url(#gradient-b6b6b6-338031228)" fill-opacity="1"><g><path d="M87.471 22L77.695 79.721C77.429 81.046 76.262 82 74.907 82 H28.401C27.046 82 25.879 81.046 25.613 79.721L15.837 22 H14.623C13.319 22 12.182 21.168 11.866 19.981L10.087 13.314C9.637 11.631 10.994 10 12.844 10 H90.856C92.706 10 94.063 11.631 93.614 13.314L91.835 19.981C91.518 21.168 90.381 22 89.077 22 H87.471"></path></g></g></g><g id="g-root-sy_2_cu_1_zmjwek1874uf5-stroke" data-item-order="-260853" transform="translate(194.3626708984375, 344.000244140625)"><g id="sy_2_cu_1_zmjwek1874uf5-stroke" fill="none" stroke-linecap="round" stroke-linejoin="round" stroke-miterlimit="4" stroke="#484848" stroke-width="2" stroke-opacity="1"><g><path d="M 10.0865 13.3142C 9.6373 11.631 10.9943 10 12.844 10L 90.8563 10C 92.706 10 94.063 11.631 93.6139 13.3142L 91.8349 19.9809C 91.5182 21.1676 90.3814 22 89.0774 22L 14.623 22C 13.3189 22 12.1821 21.1676 11.8655 19.9809L 10.0865 13.3142ZM 15.836914 22L 87.470914 22L 77.694514 79.7212C 77.428714 81.0462 76.262114 82 74.907114 82L 28.400714 82C 27.045714 82 25.879014 81.0462 25.613314 79.7212L 15.836914 22Z"></path></g></g></g><g id="g-root-sy_1_cu_qqww5o1874v7u-fill" data-item-order="-260849" transform="translate(21.394607543945312, 304.794189453125)"><g id="sy_1_cu_qqww5o1874v7u-fill-merged" stroke="none" fill="url(#gradient-76aaff-163240667)" fill-opacity="1"><g><path d="M67.83 10.261C63.527 9.108 59.625 11.907 58.517 16.042C57.409 20.177 59.389 24.552 63.691 25.705C70.148 27.435 78.713 22.275 79.637 21.701C79.124 20.742 74.287 11.991 67.83 10.261 M21.808 10.261C26.11 9.108 30.012 11.907 31.12 16.042C32.228 20.177 30.248 24.552 25.946 25.705C19.489 27.435 10.924 22.275 10 21.701C10.513 20.742 15.351 11.991 21.808 10.261 M44.819 21.558C43.419 18.374 38.784 13.709 30.753 16.208C38.991 14.508 43.463 22.592 43.463 26.873L43.31 48.452 H46.199 V26.873C46.199 22.134 50.648 14.508 58.885 16.208C50.854 13.709 46.22 18.374 44.819 21.558"></path></g></g></g><g id="g-root-sy_1_cu_qqww5o1874v7u-stroke" data-item-order="-260849" transform="translate(21.394607543945312, 304.794189453125)"><g id="sy_1_cu_qqww5o1874v7u-stroke" fill="none" stroke-linecap="round" stroke-linejoin="round" stroke-miterlimit="4" stroke="#484848" stroke-width="2" stroke-opacity="1"><g><path d="M 58.517131 16.041932C 59.625003 11.907288 63.527233 9.108155 67.829563 10.260987C 74.286579 11.99112 79.123912 20.742005 79.637294 21.70105C 78.713192 22.274842 70.148479 27.434723 63.691455 25.70459C 59.389125 24.551789 57.409252 20.176575 58.517131 16.041932ZM 58.517597 16.041535L 75.378215 20.559327M 69.802387 21.92157C 69.738597 20.896943 68.790485 18.963562 67.674999 18.496766C 68.874446 18.650238 70.66222 17.449952 71.22977 16.594483M 64.32423 21.050873C 64.252056 19.812592 63.126873 17.479462 61.795703 16.919648C 63.228458 17.100342 65.369426 15.642487 66.051067 14.606202M 31.120159 16.041932C 30.012287 11.907288 26.110057 9.108155 21.807727 10.260987C 15.350711 11.99112 10.513374 20.742005 10 21.70105C 10.924095 22.274842 19.488811 27.434723 25.945835 25.70459C 30.248165 24.551789 32.228038 20.176575 31.120159 16.041932ZM 31.119693 16.041535L 14.259075 20.559327M 19.834903 21.92157C 19.898693 20.896943 20.846805 18.963562 21.962291 18.496766C 20.762844 18.650238 18.97507 17.449952 18.40752 16.594483M 25.31306 21.050873C 25.385234 19.812592 26.510417 17.479462 27.841587 16.919648C 26.408832 17.100342 24.267864 15.642487 23.586223 14.606202M 44.819115 21.55758C 43.418515 18.37408 38.784015 13.70878 30.753215 16.20768C 38.990515 14.50788 43.462715 22.59158 43.462715 26.87328L 43.310015 48.45248L 46.199215 48.45248L 46.175615 26.87328C 46.199215 22.13448 50.647815 14.50788 58.885115 16.20768C 50.854315 13.70878 46.219815 18.37408 44.819115 21.55758Z"></path></g></g></g><g id="g-root-sy_1_cu_1_mbpv4c1874sub-fill" data-item-order="-260847" transform="translate(14.3626708984375, 344.00006103515625)"><defs><linearGradient id="gradient-ffeb37-386795387" x2="0" y2="1"><stop offset="0" stop-color="#ffef63"></stop><stop offset="1" stop-color="#ffe60a"></stop></linearGradient><linearGradient id="gradient-b6b6b6-338031228" x2="0" y2="1"><stop offset="0" stop-color="#c8c8c8"></stop><stop offset="1" stop-color="#a3a3a3"></stop></linearGradient><linearGradient id="gradient-bceb57-497517668" x2="0" y2="1"><stop offset="0" stop-color="#cff976"></stop><stop offset="1" stop-color="#a8dd38"></stop></linearGradient><linearGradient id="gradient-64edab-240055791" x2="0" y2="1"><stop offset="0" stop-color="#83fac1"></stop><stop offset="1" stop-color="#44e095"></stop></linearGradient><linearGradient id="gradient-4dd3ff-378786070" x2="0" y2="1"><stop offset="0" stop-color="#7fdfff"></stop><stop offset="1" stop-color="#1ac6ff"></stop></linearGradient><linearGradient id="gradient-76aaff-163240667" x2="0" y2="1"><stop offset="0" stop-color="#9cc2ff"></stop><stop offset="1" stop-color="#4f92ff"></stop></linearGradient></defs><g id="sy_1_cu_1_mbpv4c1874sub-fill-merged" stroke="none" fill="url(#gradient-b6b6b6-338031228)" fill-opacity="1"><g><path d="M87.471 22L77.695 79.721C77.429 81.046 76.262 82 74.907 82 H28.401C27.046 82 25.879 81.046 25.613 79.721L15.837 22 H14.623C13.319 22 12.182 21.168 11.866 19.981L10.087 13.314C9.637 11.631 10.994 10 12.844 10 H90.856C92.706 10 94.063 11.631 93.614 13.314L91.835 19.981C91.518 21.168 90.381 22 89.077 22 H87.471"></path></g></g></g><g id="g-root-sy_1_cu_1_mbpv4c1874sub-stroke" data-item-order="-260847" transform="translate(14.3626708984375, 344.00006103515625)"><g id="sy_1_cu_1_mbpv4c1874sub-stroke" fill="none" stroke-linecap="round" stroke-linejoin="round" stroke-miterlimit="4" stroke="#484848" stroke-width="2" stroke-opacity="1"><g><path d="M 10.086504 13.3142C 9.637304 11.631 10.994304 10 12.844004 10L 90.856304 10C 92.706004 10 94.063004 11.631 93.613904 13.3142L 91.834904 19.9809C 91.518204 21.1676 90.381404 22 89.077404 22L 14.623004 22C 13.318904 22 12.182104 21.1676 11.865504 19.9809L 10.086504 13.3142ZM 15.836918 22L 87.470918 22L 77.694518 79.7212C 77.428718 81.0462 76.262118 82 74.907118 82L 28.400718 82C 27.045718 82 25.879018 81.0462 25.613318 79.7212L 15.836918 22Z"></path></g></g></g><g id="g-root-tx_building_1uqjdfw1874snd-fill" data-item-order="0" transform="translate(216.4085693359375, 38)"><g id="tx_building_1uqjdfw1874snd-fill-merged" stroke="none" fill="#484848" fill-opacity="1"><g><text style="font: bold 25px Roboto, sans-serif; white-space: pre;" transform="translate(209.8046875, 25)" font-weight="bold" font-size="25px" font-family="Roboto, sans-serif"><tspan x="-197.8" y="14.5" dominant-baseline="ideographic">How Collab Builds Your Application</tspan></text></g></g></g><g id="g-root-tx_building_1uqjdfw1874snd-stroke" data-item-order="0" transform="translate(216.4085693359375, 38)"></g><g id="g-root-ic_sofa_4nk82418769s6-fill" data-item-order="0" transform="translate(38.213287353515625, 368)"></g><g id="g-root-ic_sofa_4nk82418769s6-stroke" data-item-order="0" transform="translate(38.213287353515625, 368)"><g id="ic_sofa_4nk82418769s6-stroke" fill="none" stroke-linecap="round" stroke-linejoin="round" stroke-miterlimit="4" stroke="#484848" stroke-width="2" stroke-opacity="1"><g><path d="M 24.503426 24.463301C 25.403351 24.0133 26.45335 23.86327 27.503349 24.163269C 30.05335 24.61327 32.003349 27.0133 32.003349 29.713301L 32.003349 34.063301C 32.003349 35.713303 30.653351 37.063301 29.003349 37.063301L 26.003349 37.063301L 22.853411 43.3633C 22.103411 44.8633 20.30341 45.313301 18.953409 44.4133C 17.75341 43.6633 17.453424 42.1633 18.053425 40.963303L 20.003426 37.063301M 10 10M 14.753426 37.063152L 12.803425 40.96315C 12.203425 42.163151 12.50341 43.663151 13.70341 44.413151C 15.053411 45.313152 16.853411 44.863152 17.603411 43.363152L 17.863285 42.953201M 26.003349 21.757195C 28.074551 21.757195 29.753349 20.078276 29.753349 18.007195C 29.753349 15.936131 28.074551 14.257195 26.003349 14.257195C 23.932344 14.257195 22.253426 15.936131 22.253426 18.007195C 22.253426 20.078276 23.932344 21.757195 26.003349 21.757195ZM 41.875 44.875L 29.875 44.875M 34.375 23.875L 37.375 23.875C 39.925003 23.875 41.875 25.825001 41.875 28.375L 41.875 32.875M 44.875 44.875L 37.375 44.875L 37.375 35.875C 37.375 34.224998 38.724998 32.875 40.375 32.875L 41.875 32.875C 43.525002 32.875 44.875 34.224998 44.875 35.875L 44.875 44.875ZM 22.25374 32.413151L 13.70374 32.413151C 13.25374 32.413151 12.803741 32.113152 12.65374 31.663149L 11.15374 26.2633C 11.00374 25.5133 11.453735 24.91321 12.20374 24.91321L 19.40374 24.91321C 19.853741 24.91321 20.30374 25.21315 20.453739 25.663149L 22.25374 32.413151ZM 26.753799 32.413151L 22.253786 32.413151"></path></g></g></g><g id="g-root-ic_sear_1cz9cy418768en-fill" data-item-order="0" transform="translate(218.21328735351562, 368)"></g><g id="g-root-ic_sear_1cz9cy418768en-stroke" data-item-order="0" transform="translate(218.21328735351562, 368)"><g id="ic_sear_1cz9cy418768en-stroke" fill="none" stroke-linecap="round" stroke-linejoin="round" stroke-miterlimit="4" stroke="#484848" stroke-width="2" stroke-opacity="1"><g><path d="M 28.75 35.543499C 28.75 39.295444 31.791553 42.336998 35.543499 42.336998C 39.295444 42.336998 42.336998 39.295444 42.336998 35.543499C 42.336998 31.791553 39.295444 28.75 35.543499 28.75C 31.791553 28.75 28.75 31.791553 28.75 35.543499ZM 45.25 45.25L 40.378002 40.378002M 16.75 22.75L 31 22.75M 16.75 27.25L 25.75 27.25M 16.75 18.25L 27.25 18.25M 16.75 31.75L 22.75 31.75M 16.75 36.25L 22.75 36.25M 28.75 45.25L 12.25 45.25C 11.421573 45.25 10.75 44.578426 10.75 43.75L 10.75 12.25C 10.75 11.421573 11.421573 10.75 12.25 10.75L 32.189499 10.75C 32.587292 10.750085 32.968761 10.908176 33.25 11.1895L 38.810501 16.75C 39.091827 17.031239 39.249916 17.412708 39.25 17.810499L 39.25 24.25"></path></g></g></g><g id="g-root-ic_writ_m9ufv01876806-fill" data-item-order="0" transform="translate(398.2132568359375, 368)"></g><g id="g-root-ic_writ_m9ufv01876806-stroke" data-item-order="0" transform="translate(398.2132568359375, 368)"><g id="ic_writ_m9ufv01876806-stroke" fill="none" stroke-linecap="round" stroke-linejoin="round" stroke-miterlimit="4" stroke="#484848" stroke-width="2" stroke-opacity="1"><g><path d="M 34 43.75L 28.75 45.25L 30.25 40L 40.970497 29.278C 41.111206 29.136938 41.302261 29.057659 41.501499 29.057659C 41.700741 29.057659 41.891792 29.136938 42.032501 29.278L 44.720497 31.966C 44.861561 32.106705 44.940842 32.29776 44.940842 32.497002C 44.940842 32.696239 44.861561 32.887295 44.720497 33.028ZM 38.501499 31.748499L 42.251499 35.498501M 30.25 40.001499L 34 43.751499M 15.25 21.25L 22.75 21.25L 22.75 25.75L 15.25 25.75ZM 15.25 28.75L 22.75 28.75L 22.75 33.25L 15.25 33.25ZM 15.25 36.25L 22.75 36.25L 22.75 40.75L 15.25 40.75ZM 25 45.25L 12.25 45.25C 11.421573 45.25 10.75 44.578426 10.75 43.75L 10.75 12.25C 10.75 11.421573 11.421573 10.75 12.25 10.75L 26.629002 10.75C 27.026791 10.750085 27.40826 10.908176 27.689501 11.1895L 35.810501 19.310499C 36.091827 19.59174 36.249916 19.973207 36.25 20.371L 36.25 29.5M 27.25 10.885L 27.25 18.25C 27.25 19.078426 27.921572 19.75 28.75 19.75L 36.114998 19.75M 22.75 22.75L 25.75 22.75C 26.578428 22.75 27.25 23.421572 27.25 24.25L 27.25 36.25C 27.25 37.078426 26.578428 37.75 25.75 37.75L 22.75 37.75M 22.75 30.25L 31 30.25"></path></g></g></g><g id="g-root-ic_2_i0w5os1874t1l-fill" data-item-order="0" transform="translate(578.2132568359375, 368)"></g><g id="g-root-ic_2_i0w5os1874t1l-stroke" data-item-order="0" transform="translate(578.2132568359375, 368)"><g id="ic_2_i0w5os1874t1l-stroke" fill="none" stroke-linecap="round" stroke-linejoin="round" stroke-miterlimit="4" stroke="#484848" stroke-width="2" stroke-opacity="1"><g><path d="M 24.295 21.480999C 23.76746 22.677765 22.887938 23.685476 21.773499 24.369999L 23.258499 32.110001L 18.6175 32.110001L 17.300501 25.2265C 14.661958 24.767817 12.582741 22.723946 12.07889 20.093653C 11.57504 17.463362 12.751749 14.795795 15.034 13.3945L 15.9535 18.190001L 18.6175 19.997499L 20.424999 17.334999L 19.505501 12.538C 21.457653 12.876608 23.145168 14.095218 24.08057 15.84181C 25.015972 17.588402 25.095064 19.668417 24.295 21.480999ZM 34.788998 13.444C 34.3405 15.4615 31.967501 16.806999 28.7155 16.084L 28.080999 18.935499L 43.291 22.316502L 44.77 15.6625L 34.788998 13.444ZM 31.762001 32.110001L 34.378002 20.341L 38.7085 21.303999L 36.183998 32.1115L 31.762001 32.1115ZM 44.875 41.994999L 44.875 32.110001L 11.125 32.110001L 11.125 41.994999C 11.125 42.805 11.782 43.463501 12.592 43.463501L 43.407997 43.463501C 44.218002 43.463501 44.875 42.805 44.875 41.994999ZM 30.2005 34.312C 30.2005 35.527302 29.215302 36.512501 28 36.512501C 26.784698 36.512501 25.7995 35.527302 25.7995 34.312L 25.7995 32.1115L 30.2005 32.1115L 30.2005 34.312Z"></path></g></g></g><g id="g-root-ic_box_1qapvbg1874tfm-fill" data-item-order="0" transform="translate(758.2132568359375, 368)"></g><g id="g-root-ic_box_1qapvbg1874tfm-stroke" data-item-order="0" transform="translate(758.2132568359375, 368)"><g id="ic_box_1qapvbg1874tfm-stroke" fill="none" stroke-linecap="round" stroke-linejoin="round" stroke-miterlimit="4" stroke="#484848" stroke-width="2" stroke-opacity="1"><g><path d="M 11.5 37.190502L 28 41.690502M 28 41.690502L 44.5 37.190502M 11.5 37.190502L 19.7395 35.031998M 11.5 44.031998L 11.5 37.378002M 44.5 37.378002L 44.5 44.031998M 28 44.781998L 28 41.690502M 33.25 19.093C 33.25 21.9925 32.3755 29.593 28 29.593C 23.6245 29.593 22.75 22 22.75 19.093C 22.75 13.843 28 11.218 28 11.218C 28 11.218 33.25 13.843 33.25 19.093ZM 25.9405 18.9055C 25.940254 20.043104 26.862394 20.965446 28 20.965446C 29.137604 20.965446 30.059746 20.043104 30.0595 18.9055C 30.059746 17.767895 29.137604 16.845552 28 16.845552C 26.862394 16.845552 25.940254 17.767895 25.9405 18.9055M 24.5245 28.241501L 23.3125 28.848999C 22.62722 29.212746 21.999441 29.675745 21.449499 30.223C 21.180353 30.511675 20.764244 30.610613 20.39397 30.473972C 20.023697 30.337332 19.771606 29.99181 19.754499 29.5975C 19.490396 27.288748 20.781635 25.082703 22.924 24.182501M 31.4755 28.241501L 32.6875 28.848999C 33.37278 29.212746 34.000557 29.675745 34.550499 30.223C 34.819645 30.511675 35.235756 30.610613 35.606026 30.473972C 35.976299 30.337332 36.228394 29.99181 36.245499 29.5975C 36.509605 27.288748 35.218369 25.082703 33.076 24.182501M 44.5 37.190502L 36.260498 35.031998M 30.099998 34.010498C 30.099998 35.170002 29.1595 37.974998 28 37.974998C 26.8405 37.974998 25.900002 35.170002 25.900002 34.010498C 25.900002 32.850704 26.840202 31.9105 28 31.9105C 29.159798 31.9105 30.099998 32.850704 30.099998 34.010498Z"></path></g></g></g><g id="g-root-tx_prompt_1uqjdfw1874snc-fill" data-item-order="0" transform="translate(21.252349853515625, 440)"><g id="tx_prompt_1uqjdfw1874snc-fill-merged" stroke="none" fill="#484848" fill-opacity="1"><g><text style="font: 20px Roboto, sans-serif; white-space: pre;" transform="translate(44.9609375, 22)" font-size="20px" font-family="Roboto, sans-serif"><tspan x="-32.96" y="11.5" dominant-baseline="ideographic">Prompt</tspan></text></g></g></g><g id="g-root-tx_prompt_1uqjdfw1874snc-stroke" data-item-order="0" transform="translate(21.252349853515625, 440)"></g><g id="g-root-tx_clarific_4mci41874v7z-fill" data-item-order="0" transform="translate(175.7054443359375, 440)"><g id="tx_clarific_4mci41874v7z-fill-merged" stroke="none" fill="#484848" fill-opacity="1"><g><text style="font: 20px Roboto, sans-serif; white-space: pre;" transform="translate(70.5078125, 22)" font-size="20px" font-family="Roboto, sans-serif"><tspan x="-58.51" y="11.5" dominant-baseline="ideographic">Clarifications</tspan></text></g></g></g><g id="g-root-tx_clarific_4mci41874v7z-stroke" data-item-order="0" transform="translate(175.7054443359375, 440)"></g><g id="g-root-tx_generati_4mci41874v7y-fill" data-item-order="0" transform="translate(365.7093505859375, 440)"><g id="tx_generati_4mci41874v7y-fill-merged" stroke="none" fill="#484848" fill-opacity="1"><g><text style="font: 20px Roboto, sans-serif; white-space: pre;" transform="translate(60.50390625, 22)" font-size="20px" font-family="Roboto, sans-serif"><tspan x="-48.5" y="11.5" dominant-baseline="ideographic">Generation</tspan></text></g></g></g><g id="g-root-tx_generati_4mci41874v7y-stroke" data-item-order="0" transform="translate(365.7093505859375, 440)"></g><g id="g-root-tx_customiz_909cr01874uf9-fill" data-item-order="0" transform="translate(529.6234130859375, 440)"><g id="tx_customiz_909cr01874uf9-fill-merged" stroke="none" fill="#484848" fill-opacity="1"><g><text style="font: 20px Roboto, sans-serif; white-space: pre;" transform="translate(76.58984375, 22)" font-size="20px" font-family="Roboto, sans-serif"><tspan x="-64.59" y="11.5" dominant-baseline="ideographic">Customization</tspan></text></g></g></g><g id="g-root-tx_customiz_909cr01874uf9-stroke" data-item-order="0" transform="translate(529.6234130859375, 440)"></g><g id="g-root-tx_deployme_dg2uvg1874tn0-fill" data-item-order="0" transform="translate(721.0726318359375, 440)"><g id="tx_deployme_dg2uvg1874tn0-fill-merged" stroke="none" fill="#484848" fill-opacity="1"><g><text style="font: 20px Roboto, sans-serif; white-space: pre;" transform="translate(65.140625, 22)" font-size="20px" font-family="Roboto, sans-serif"><tspan x="-53.14" y="11.5" dominant-baseline="ideographic">Deployment</tspan></text></g></g></g><g id="g-root-tx_deployme_dg2uvg1874tn0-stroke" data-item-order="0" transform="translate(721.0726318359375, 440)"></g></g></g><path id="w147dn1o16t8a2q" d="M65.283 12.757a.35.35 0 0 0 .584.157l5.203-5.141-6.183 3.523.396 1.461zm-2.216-11.7a.35.35 0 0 0-.522.305v3.111l3.276-1.868-2.754-1.548zm3.728 2.105l-4.25 2.421v2.445l6.391-3.644-2.141-1.222zm4.708 3.303a.35.35 0 0 0 0-.609l-1.592-.9-7.365 4.199v1.782a.35.35 0 0 0 .523.305l8.435-4.777z M44.542 2.513c0-.433.355-.783.792-.783s.792.35.792.783-.355.783-.792.783-.792-.35-.792-.783zm59.171 0c0-.433.355-.783.792-.783s.792.35.792.783-.355.783-.792.783-.792-.35-.792-.783zm-85.951 7.636h-1.27v-.487c-.276.201-.864.609-1.881.609-1.202 0-2.274-.794-2.137-2.078.118-1.106 1.153-1.584 1.848-1.727l2.17-.345c0-.539-.29-.956-1.064-1.006s-1.21.305-1.571 1.017l-1.124-.605c1.218-2.631 5.029-1.764 5.029.414v4.207zm-1.27-2.86c.006.396-.062 1.112-.819 1.59-.587.37-1.841.299-1.903-.395-.049-.555.461-.791.906-.898l1.816-.297zm72.662 2.86h-1.27v-.487c-.276.201-.864.609-1.881.609-1.202 0-2.274-.794-2.137-2.078.118-1.106 1.153-1.584 1.848-1.727l2.17-.345c0-.539-.29-.956-1.064-1.006s-1.21.305-1.571 1.017l-1.124-.605c1.218-2.631 5.029-1.764 5.029.414v4.207zm-1.27-2.86c.006.396-.062 1.112-.82 1.59-.587.37-1.841.299-1.903-.395-.049-.555.461-.791.906-.898l1.816-.297zM99.096 10.149H97.85v-8.45h1.246v4.895l2.68-2.559h1.738l-2.633 2.535 2.715 3.578h-1.556l-2.077-2.707-.867.844v1.863zm6.053-6.114h-1.255v6.113h1.255V4.035zm-59.2 0h-1.255v6.113h1.255V4.035zm5.584 6.113V1.697h1.255v2.695c.361-.346 1-.485 1.47-.485 1.452 0 2.477 1.082 2.457 2.448v3.792h-1.27v-3.68c0-.408-.214-1.339-1.315-1.339-.968 0-1.342.756-1.342 1.339v3.681h-1.255zm-4.76-4.894V4.039h.621a.45.45 0 0 0 .45-.45v-.855h1.251v1.305h1.309v1.215h-1.309v3.109c0 .293.105.664.648.664.365 0 .531-.035.736-.07v1.137s-.361.113-.857.113c-1.398 0-1.777-1.051-1.777-1.788V5.254h-1.071zM36.528 4.039h-1.394l2.191 6.106h1.125l1.234-3.918 1.238 3.918h1.129l2.188-6.106h-1.383l-1.359 3.93-1.256-3.93h-1.124l-1.242 3.957-1.348-3.957zM26.212 7.141c-.02 1.566 1.187 3.129 3.223 3.129 1.566 0 2.383-.918 2.734-1.719L31.172 8c-.315.399-.801 1.094-1.738 1.094-1.145 0-1.825-.781-1.891-1.52h4.625c.074-.284.148-.995-.03-1.559-.336-1.064-1.221-2.102-2.839-2.102s-3.088 1.152-3.088 3.227zm1.363-.75h3.348c-.055-.43-.566-1.301-1.623-1.301a1.79 1.79 0 0 0-1.725 1.301zm-8.758.75c.038 1.758 1.277 3.133 3.145 3.133 1.074 0 1.723-.477 1.961-.672v.547h1.242V1.703h-1.258v2.888c-.414-.36-1.062-.68-1.93-.68-1.91 0-3.198 1.473-3.16 3.23zm1.309-.08c0 1.119.723 1.978 1.836 1.978a1.88 1.88 0 0 0 1.94-1.904c0-1.371-1.011-1.99-1.972-1.99s-1.805.798-1.805 1.916zm76.683-.028C96.771 5.275 95.532 3.9 93.664 3.9c-1.074 0-1.723.477-1.961.672v-.547h-1.242v8.22h1.258V9.583c.414.36 1.063.68 1.93.68 1.91 0 3.198-1.473 3.16-3.23zm-1.309.08c0-1.119-.723-1.978-1.836-1.978a1.88 1.88 0 0 0-1.94 1.904c0 1.371 1.011 1.99 1.972 1.99S95.5 8.231 95.5 7.113zM106.441 10.173V4.036h1.254v.382c.361-.346 1-.485 1.47-.485 1.452 0 2.477 1.082 2.457 2.448v3.792h-1.27V6.492c0-.408-.214-1.339-1.315-1.339-.969 0-1.342.756-1.342 1.339v3.681h-1.254zm-30.383-.021V1.824h1.084l4.215 5.777V1.824h1.32v8.328h-1.094l-4.207-5.796v5.796h-1.319zM5.24 10.149H4V2.377h1.014l2.664 3.597 2.654-3.592h1.03v7.766h-1.256V4.762L7.678 8.068 5.24 4.742v5.407z" transform="translate(756.7442626953125, 488)" fill="#80808088" stroke="none"></path></svg>